<?xml version="1.0" encoding="UTF-8"?>
<svg width="57px" height="40px" viewBox="0 0 57 40" version="1.1" xmlns="http://www.w3.org/2000/svg" xmlns:xlink="http://www.w3.org/1999/xlink">
    <!-- Generator: Sketch 47.1 (45422) - http://www.bohemiancoding.com/sketch -->
    <title>Combined Shape</title>
    <desc>Created with Sketch.</desc>
    <defs></defs>
    <g id="Website" stroke="none" stroke-width="1" fill="none" fill-rule="evenodd">
        <g id="Homepage" transform="translate(-200.000000, -41.000000)" fill="#FFFFFF">
            <g id="Top-Navigation" transform="translate(200.000000, 40.000000)">
                <path d="M56.9150026,5.62169674 L56.9150026,5.62169674 L37.7021799,24.8345195 C32.3967054,19.529045 32.3967054,10.9271712 37.7021799,5.62169674 C43.0076544,0.31622225 51.6095281,0.31622225 56.9150026,5.62169674 Z M32.7982595,36.5057272 L52.010948,17.2934055 C57.3164439,22.5988001 57.3164913,31.200497 52.0110539,36.5058331 C46.7056164,41.8111693 38.1037554,41.8111219 32.7982595,36.5057272 Z M24.8064694,1.05590768 L24.8064694,40.9440923 C23.9011537,41.0698846 20.8840343,40.9440923 19.9440923,40.9440923 C8.92927428,40.9440923 -1.42108547e-14,32.014818 -1.42108547e-14,21 C-1.42108547e-14,9.98518197 8.92927428,1.05590768 19.9440923,1.05590768 C20.8840343,1.05590768 23.9011537,0.930115394 24.8064694,1.05590768 Z" id="Combined-Shape"></path>
            </g>
        </g>
    </g>
</svg>